<?xml version="1.0" encoding="utf-8"?>
<!-- Generator: Adobe Illustrator 24.1.1, SVG Export Plug-In . SVG Version: 6.00 Build 0)  -->
<svg version="1.1" id="blank-file-second" xmlns="http://www.w3.org/2000/svg" xmlns:xlink="http://www.w3.org/1999/xlink" x="0px"
	 y="0px" viewBox="0 0 350.3 450.3" style="enable-background:new 0 0 350.3 450.3;" xml:space="preserve">
<path d="M199.7,0c-0.9,0-1.9,0.1-2.8,0.3H20c-11,0-20,9-20,20v410c0,11,9,20,20,20h310c11,0,20-9,20-20V153.5
	c1.2-7.3-1.7-14.6-7.5-19.1L215.8,7.7C211.9,2.8,206-0.1,199.7,0z M40,40.3h140v106.8c-1.1,6.4,1.1,13,5.8,17.5l0.2,0.2
	c0.1,0.1,0.2,0.2,0.3,0.3c4.5,4.4,10.9,6.3,17.1,5.3H310v240H40V40.3z M220,68.6l61.7,61.7H220V68.6z"/>
</svg>
