<?xml version="1.0" encoding="utf-8"?>
<!-- Generator: Adobe Illustrator 24.1.1, SVG Export Plug-In . SVG Version: 6.00 Build 0)  -->
<svg version="1.1" id="Слой_1" xmlns="http://www.w3.org/2000/svg" xmlns:xlink="http://www.w3.org/1999/xlink" x="0px" y="0px"
	 viewBox="0 0 399.8 512" style="enable-background:new 0 0 399.8 512;" xml:space="preserve">
<path d="M60.9,0v60.9L0,60.9C0,98.1,0,512,0,512h338.9v-60.9h60.9c0-150.4-0.4-300.8-0.4-451.1H60.9z M315.3,488.4H23.6V84.5h188.2
	V187l103.4,0.9L315.3,488.4L315.3,488.4z M235.5,101.2l63.1,63.1c-11.1,0-62.2-0.9-62.2-0.9S235.5,112.5,235.5,101.2L235.5,101.2z
	 M338.9,427.5V176.1c0,0-90.2-96.8-110-114.6L84.5,60.9V20.5c0,0,240.4,3.1,291.7,3.1c0,134.6,0,269.2,0,403.8L338.9,427.5
	L338.9,427.5z"/>
</svg>
