<?xml version="1.0" encoding="utf-8"?>
<!-- Generator: Adobe Illustrator 24.1.1, SVG Export Plug-In . SVG Version: 6.00 Build 0)  -->
<svg version="1.1" id="Слой_1" xmlns="http://www.w3.org/2000/svg" xmlns:xlink="http://www.w3.org/1999/xlink" x="0px" y="0px"
	 viewBox="0 0 22 28" style="enable-background:new 0 0 22 28;" xml:space="preserve">
<path d="M22,1v26c0,0.6-0.4,1-1,1H1c-0.6,0-1-0.4-1-1v-2h2v1h18V2H2v3H0V1c0-0.6,0.4-1,1-1h20C21.6,0,22,0.4,22,1z M7.3,18.3
	l1.4,1.4l5-5c0.4-0.4,0.4-1,0-1.4c0,0,0,0,0,0l-5-5L7.3,9.7l3.3,3.3H0v2h10.6L7.3,18.3z"/>
</svg>
