<svg xmlns="http://www.w3.org/2000/svg" width="13" height="13" viewBox="0 0 13 13">
    <g fill="#000" fill-rule="evenodd">
        <path d="M11.927 10.07V8.935a.747.747 0 0 0-.741-.753H6.904V7h-.84v1.181h-4.26a.747.747 0 0 0-.74.753v1.14A1.488 1.488 0 0 0 0 11.508 1.48 1.48 0 0 0 1.468 13a1.48 1.48 0 0 0 1.469-1.492c0-.668-.435-1.235-1.03-1.424V9.038h4.16v1.046a1.49 1.49 0 0 0-1.037 1.424A1.48 1.48 0 0 0 6.498 13a1.48 1.48 0 0 0 1.469-1.492c0-.678-.449-1.252-1.06-1.43v-1.04h4.176v1.046a1.49 1.49 0 0 0-1.02 1.421 1.48 1.48 0 0 0 1.469 1.492A1.48 1.48 0 0 0 13 11.505c0-.685-.455-1.259-1.073-1.434z"/>
        <path d="M9.75 5.536a11.395 11.395 0 0 0-2.053-1.267.06.06 0 0 1-.035-.056V3.56a1.48 1.48 0 0 0 .198-.524c.077-.005.176-.108.286-.475.137-.47.01-.566-.118-.566.013-.039.023-.08.031-.12C8.283.576 7.619.53 7.619.53a1 1 0 0 0-.4-.358 1.402 1.402 0 0 0-.823-.166 1.217 1.217 0 0 0-.329.061 1.41 1.41 0 0 0-.362.179c-.132.08-.26.181-.372.294a1.44 1.44 0 0 0-.402.676c-.056.208-.043.426.002.66.008.04.018.082.031.12-.125.003-.247.101-.112.567.107.367.209.47.285.475.028.166.094.35.199.524v.654c.002.022-.013.044-.033.053a11.36 11.36 0 0 0-2.046 1.262.66.66 0 0 0-.257.521v.608c0 .188.158.34.354.34h6.292A.347.347 0 0 0 10 6.66v-.608a.667.667 0 0 0-.25-.516z"/>
    </g>
</svg>
